<?xml version="1.0" encoding="UTF-8" standalone="no"?>
<!DOCTYPE svg PUBLIC "-//W3C//DTD SVG 1.1//EN"
 "http://www.w3.org/Graphics/SVG/1.1/DTD/svg11.dtd">
<!-- Generated by graphviz version 2.47.0 (20210316.0004)
 -->
<!-- Title: dbml Pages: 1 -->
<svg width="2073pt" height="3210pt"
 viewBox="0.00 0.00 2072.63 3209.92" xmlns="http://www.w3.org/2000/svg" xmlns:xlink="http://www.w3.org/1999/xlink">
<g id="graph0" class="graph" transform="scale(1 1) rotate(0) translate(4 3205.92)">
<title>dbml</title>
<!-- Account -->
<g id="Account" class="node">
<title>Account</title>
<ellipse fill="none" stroke="black" stroke-width="0" cx="985.64" cy="-1600.96" rx="266.66" ry="172.57"/>
<polygon fill="#1d71b8" stroke="transparent" points="799.64,-1660.96 799.64,-1720.96 1172.64,-1720.96 1172.64,-1660.96 799.64,-1660.96"/>
<polygon fill="none" stroke="#29235c" points="799.64,-1660.96 799.64,-1720.96 1172.64,-1720.96 1172.64,-1660.96 799.64,-1660.96"/>
<text text-anchor="start" x="866.09" y="-1682.16" font-family="Helvetica,sans-Serif" font-weight="bold" font-size="32.00" fill="#ffffff"> &#160;&#160;&#160;&#160;&#160;&#160;Account &#160;&#160;&#160;&#160;&#160;&#160;</text>
<polygon fill="#e7e2dd" stroke="transparent" points="799.64,-1600.96 799.64,-1660.96 1172.64,-1660.96 1172.64,-1600.96 799.64,-1600.96"/>
<polygon fill="none" stroke="#29235c" points="799.64,-1600.96 799.64,-1660.96 1172.64,-1660.96 1172.64,-1600.96 799.64,-1600.96"/>
<text text-anchor="start" x="810.64" y="-1622.16" font-family="Helvetica,sans-Serif" font-weight="bold" font-size="32.00" fill="#29235c">id</text>
<text text-anchor="start" x="835.53" y="-1622.16" font-family="Helvetica,sans-Serif" font-size="32.00" fill="#29235c"> &#160;&#160;&#160;</text>
<text text-anchor="start" x="1019.43" y="-1622.16" font-family="Helvetica,sans-Serif" font-style="italic" font-size="32.00" fill="#29235c">INTEGER</text>
<polygon fill="#e7e2dd" stroke="transparent" points="799.64,-1540.96 799.64,-1600.96 1172.64,-1600.96 1172.64,-1540.96 799.64,-1540.96"/>
<polygon fill="none" stroke="#29235c" points="799.64,-1540.96 799.64,-1600.96 1172.64,-1600.96 1172.64,-1540.96 799.64,-1540.96"/>
<text text-anchor="start" x="810.24" y="-1561.16" font-family="Helvetica,sans-Serif" font-size="32.00" fill="#29235c">customer_id &#160;&#160;&#160;</text>
<text text-anchor="start" x="1019.54" y="-1562.16" font-family="Helvetica,sans-Serif" font-style="italic" font-size="32.00" fill="#29235c">INTEGER</text>
<polygon fill="#e7e2dd" stroke="transparent" points="799.64,-1480.96 799.64,-1540.96 1172.64,-1540.96 1172.64,-1480.96 799.64,-1480.96"/>
<polygon fill="none" stroke="#29235c" points="799.64,-1480.96 799.64,-1540.96 1172.64,-1540.96 1172.64,-1480.96 799.64,-1480.96"/>
<text text-anchor="start" x="810.64" y="-1501.16" font-family="Helvetica,sans-Serif" font-size="32.00" fill="#29235c">balance &#160;&#160;&#160;</text>
<text text-anchor="start" x="1058.52" y="-1502.16" font-family="Helvetica,sans-Serif" font-style="italic" font-size="32.00" fill="#29235c">FLOAT</text>
<polygon fill="none" stroke="#29235c" stroke-width="2" points="798.14,-1479.96 798.14,-1721.96 1173.14,-1721.96 1173.14,-1479.96 798.14,-1479.96"/>
</g>
<!-- Customer -->
<g id="Customer" class="node">
<title>Customer</title>
<ellipse fill="none" stroke="black" stroke-width="0" cx="1717.44" cy="-2018.96" rx="347.38" ry="299.63"/>
<polygon fill="#1d71b8" stroke="transparent" points="1474.44,-2168.96 1474.44,-2228.96 1961.44,-2228.96 1961.44,-2168.96 1474.44,-2168.96"/>
<polygon fill="none" stroke="#29235c" points="1474.44,-2168.96 1474.44,-2228.96 1961.44,-2228.96 1961.44,-2168.96 1474.44,-2168.96"/>
<text text-anchor="start" x="1586.36" y="-2190.16" font-family="Helvetica,sans-Serif" font-weight="bold" font-size="32.00" fill="#ffffff"> &#160;&#160;&#160;&#160;&#160;&#160;Customer &#160;&#160;&#160;&#160;&#160;&#160;</text>
<polygon fill="#e7e2dd" stroke="transparent" points="1474.44,-2108.96 1474.44,-2168.96 1961.44,-2168.96 1961.44,-2108.96 1474.44,-2108.96"/>
<polygon fill="none" stroke="#29235c" points="1474.44,-2108.96 1474.44,-2168.96 1961.44,-2168.96 1961.44,-2108.96 1474.44,-2108.96"/>
<text text-anchor="start" x="1485.44" y="-2130.16" font-family="Helvetica,sans-Serif" font-weight="bold" font-size="32.00" fill="#29235c">id</text>
<text text-anchor="start" x="1510.33" y="-2130.16" font-family="Helvetica,sans-Serif" font-size="32.00" fill="#29235c"> &#160;&#160;&#160;</text>
<text text-anchor="start" x="1808.22" y="-2130.16" font-family="Helvetica,sans-Serif" font-style="italic" font-size="32.00" fill="#29235c">INTEGER</text>
<polygon fill="#e7e2dd" stroke="transparent" points="1474.44,-2048.96 1474.44,-2108.96 1961.44,-2108.96 1961.44,-2048.96 1474.44,-2048.96"/>
<polygon fill="none" stroke="#29235c" points="1474.44,-2048.96 1474.44,-2108.96 1961.44,-2108.96 1961.44,-2048.96 1474.44,-2048.96"/>
<text text-anchor="start" x="1485.44" y="-2069.16" font-family="Helvetica,sans-Serif" font-size="32.00" fill="#29235c">name &#160;&#160;&#160;</text>
<text text-anchor="start" x="1719.34" y="-2070.16" font-family="Helvetica,sans-Serif" font-style="italic" font-size="32.00" fill="#29235c">VARCHAR(100)</text>
<polygon fill="#e7e2dd" stroke="transparent" points="1474.44,-1988.96 1474.44,-2048.96 1961.44,-2048.96 1961.44,-1988.96 1474.44,-1988.96"/>
<polygon fill="none" stroke="#29235c" points="1474.44,-1988.96 1474.44,-2048.96 1961.44,-2048.96 1961.44,-1988.96 1474.44,-1988.96"/>
<text text-anchor="start" x="1485.44" y="-2009.16" font-family="Helvetica,sans-Serif" font-size="32.00" fill="#29235c">email &#160;&#160;&#160;</text>
<text text-anchor="start" x="1719.34" y="-2010.16" font-family="Helvetica,sans-Serif" font-style="italic" font-size="32.00" fill="#29235c">VARCHAR(100)</text>
<polygon fill="#e7e2dd" stroke="transparent" points="1474.44,-1928.96 1474.44,-1988.96 1961.44,-1988.96 1961.44,-1928.96 1474.44,-1928.96"/>
<polygon fill="none" stroke="#29235c" points="1474.44,-1928.96 1474.44,-1988.96 1961.44,-1988.96 1961.44,-1928.96 1474.44,-1928.96"/>
<text text-anchor="start" x="1485.44" y="-1949.16" font-family="Helvetica,sans-Serif" font-size="32.00" fill="#29235c">phone &#160;&#160;&#160;</text>
<text text-anchor="start" x="1737.13" y="-1950.16" font-family="Helvetica,sans-Serif" font-style="italic" font-size="32.00" fill="#29235c">VARCHAR(50)</text>
<polygon fill="#e7e2dd" stroke="transparent" points="1474.44,-1868.96 1474.44,-1928.96 1961.44,-1928.96 1961.44,-1868.96 1474.44,-1868.96"/>
<polygon fill="none" stroke="#29235c" points="1474.44,-1868.96 1474.44,-1928.96 1961.44,-1928.96 1961.44,-1868.96 1474.44,-1868.96"/>
<text text-anchor="start" x="1485.44" y="-1889.16" font-family="Helvetica,sans-Serif" font-size="32.00" fill="#29235c">address &#160;&#160;&#160;</text>
<text text-anchor="start" x="1868.66" y="-1890.16" font-family="Helvetica,sans-Serif" font-style="italic" font-size="32.00" fill="#29235c">TEXT</text>
<polygon fill="#e7e2dd" stroke="transparent" points="1474.44,-1808.96 1474.44,-1868.96 1961.44,-1868.96 1961.44,-1808.96 1474.44,-1808.96"/>
<polygon fill="none" stroke="#29235c" points="1474.44,-1808.96 1474.44,-1868.96 1961.44,-1868.96 1961.44,-1808.96 1474.44,-1808.96"/>
<text text-anchor="start" x="1485.42" y="-1829.16" font-family="Helvetica,sans-Serif" font-size="32.00" fill="#29235c">membership_since &#160;&#160;&#160;</text>
<text text-anchor="start" x="1789.05" y="-1830.16" font-family="Helvetica,sans-Serif" font-style="italic" font-size="32.00" fill="#29235c">DATETIME</text>
<polygon fill="none" stroke="#29235c" stroke-width="2" points="1472.94,-1807.96 1472.94,-2229.96 1961.94,-2229.96 1961.94,-1807.96 1472.94,-1807.96"/>
</g>
<!-- Account&#45;&gt;Customer -->
<!-- Account&#45;&gt;Customer -->
<g id="edge2" class="edge">
<title>Account:e&#45;&gt;Customer:w</title>
<path fill="none" stroke="#29235c" stroke-width="3" d="M1173.64,-1570.96C1291.85,-1570.96 1276.49,-1679.83 1334.25,-1782.96 1415.56,-1928.14 1308.13,-2130.46 1463.34,-2138.7"/>
<polygon fill="#29235c" stroke="#29235c" stroke-width="3" points="1463.35,-2142.2 1473.44,-2138.96 1463.53,-2135.2 1463.35,-2142.2"/>
<text text-anchor="middle" x="1467.22" y="-2148.56" font-family="Helvetica,sans-Serif" font-size="32.00" fill="#29235c">*</text>
<text text-anchor="middle" x="1182.54" y="-1542.16" font-family="Helvetica,sans-Serif" font-size="32.00" fill="#29235c">1</text>
</g>
<!-- Contact -->
<g id="Contact" class="node">
<title>Contact</title>
<ellipse fill="none" stroke="black" stroke-width="0" cx="985.64" cy="-2986.96" rx="321.97" ry="214.92"/>
<polygon fill="#1d71b8" stroke="transparent" points="760.64,-3076.96 760.64,-3136.96 1211.64,-3136.96 1211.64,-3076.96 760.64,-3076.96"/>
<polygon fill="none" stroke="#29235c" points="760.64,-3076.96 760.64,-3136.96 1211.64,-3136.96 1211.64,-3076.96 760.64,-3076.96"/>
<text text-anchor="start" x="868.77" y="-3098.16" font-family="Helvetica,sans-Serif" font-weight="bold" font-size="32.00" fill="#ffffff"> &#160;&#160;&#160;&#160;&#160;&#160;Contact &#160;&#160;&#160;&#160;&#160;&#160;</text>
<polygon fill="#e7e2dd" stroke="transparent" points="760.64,-3016.96 760.64,-3076.96 1211.64,-3076.96 1211.64,-3016.96 760.64,-3016.96"/>
<polygon fill="none" stroke="#29235c" points="760.64,-3016.96 760.64,-3076.96 1211.64,-3076.96 1211.64,-3016.96 760.64,-3016.96"/>
<text text-anchor="start" x="771.64" y="-3038.16" font-family="Helvetica,sans-Serif" font-weight="bold" font-size="32.00" fill="#29235c">id</text>
<text text-anchor="start" x="796.53" y="-3038.16" font-family="Helvetica,sans-Serif" font-size="32.00" fill="#29235c"> &#160;&#160;&#160;</text>
<text text-anchor="start" x="1058.43" y="-3038.16" font-family="Helvetica,sans-Serif" font-style="italic" font-size="32.00" fill="#29235c">INTEGER</text>
<polygon fill="#e7e2dd" stroke="transparent" points="760.64,-2956.96 760.64,-3016.96 1211.64,-3016.96 1211.64,-2956.96 760.64,-2956.96"/>
<polygon fill="none" stroke="#29235c" points="760.64,-2956.96 760.64,-3016.96 1211.64,-3016.96 1211.64,-2956.96 760.64,-2956.96"/>
<text text-anchor="start" x="771.64" y="-2977.16" font-family="Helvetica,sans-Serif" font-size="32.00" fill="#29235c">customer_id &#160;&#160;&#160;</text>
<text text-anchor="start" x="1058.43" y="-2978.16" font-family="Helvetica,sans-Serif" font-style="italic" font-size="32.00" fill="#29235c">INTEGER</text>
<polygon fill="#e7e2dd" stroke="transparent" points="760.64,-2896.96 760.64,-2956.96 1211.64,-2956.96 1211.64,-2896.96 760.64,-2896.96"/>
<polygon fill="none" stroke="#29235c" points="760.64,-2896.96 760.64,-2956.96 1211.64,-2956.96 1211.64,-2896.96 760.64,-2896.96"/>
<text text-anchor="start" x="771.15" y="-2917.16" font-family="Helvetica,sans-Serif" font-size="32.00" fill="#29235c">contact_type &#160;&#160;&#160;</text>
<text text-anchor="start" x="987.49" y="-2918.16" font-family="Helvetica,sans-Serif" font-style="italic" font-size="32.00" fill="#29235c">VARCHAR(50)</text>
<polygon fill="#e7e2dd" stroke="transparent" points="760.64,-2836.96 760.64,-2896.96 1211.64,-2896.96 1211.64,-2836.96 760.64,-2836.96"/>
<polygon fill="none" stroke="#29235c" points="760.64,-2836.96 760.64,-2896.96 1211.64,-2896.96 1211.64,-2836.96 760.64,-2836.96"/>
<text text-anchor="start" x="771.64" y="-2857.16" font-family="Helvetica,sans-Serif" font-size="32.00" fill="#29235c">value &#160;&#160;&#160;</text>
<text text-anchor="start" x="969.55" y="-2858.16" font-family="Helvetica,sans-Serif" font-style="italic" font-size="32.00" fill="#29235c">VARCHAR(100)</text>
<polygon fill="none" stroke="#29235c" stroke-width="2" points="759.14,-2835.96 759.14,-3137.96 1212.14,-3137.96 1212.14,-2835.96 759.14,-2835.96"/>
</g>
<!-- Contact&#45;&gt;Customer -->
<!-- Contact&#45;&gt;Customer -->
<g id="edge4" class="edge">
<title>Contact:e&#45;&gt;Customer:w</title>
<path fill="none" stroke="#29235c" stroke-width="3" d="M1212.64,-2986.96C1325.92,-2986.96 1294.51,-2869.04 1334.25,-2762.96 1382.87,-2633.16 1333.88,-2162.72 1463.38,-2139.83"/>
<polygon fill="#29235c" stroke="#29235c" stroke-width="3" points="1463.77,-2143.3 1473.44,-2138.96 1463.17,-2136.33 1463.77,-2143.3"/>
<text text-anchor="middle" x="1467.22" y="-2110.16" font-family="Helvetica,sans-Serif" font-size="32.00" fill="#29235c">*</text>
<text text-anchor="middle" x="1221.54" y="-2996.56" font-family="Helvetica,sans-Serif" font-size="32.00" fill="#29235c">1</text>
</g>
<!-- CustomerInteraction -->
<g id="CustomerInteraction" class="node">
<title>CustomerInteraction</title>
<ellipse fill="none" stroke="black" stroke-width="0" cx="985.64" cy="-1152.96" rx="318.4" ry="257.27"/>
<polygon fill="#1d71b8" stroke="transparent" points="762.64,-1272.96 762.64,-1332.96 1208.64,-1332.96 1208.64,-1272.96 762.64,-1272.96"/>
<polygon fill="none" stroke="#29235c" points="762.64,-1272.96 762.64,-1332.96 1208.64,-1332.96 1208.64,-1272.96 762.64,-1272.96"/>
<text text-anchor="start" x="779.37" y="-1294.16" font-family="Helvetica,sans-Serif" font-weight="bold" font-size="32.00" fill="#ffffff"> &#160;&#160;&#160;&#160;&#160;&#160;CustomerInteraction &#160;&#160;&#160;&#160;&#160;&#160;</text>
<polygon fill="#e7e2dd" stroke="transparent" points="762.64,-1212.96 762.64,-1272.96 1208.64,-1272.96 1208.64,-1212.96 762.64,-1212.96"/>
<polygon fill="none" stroke="#29235c" points="762.64,-1212.96 762.64,-1272.96 1208.64,-1272.96 1208.64,-1212.96 762.64,-1212.96"/>
<text text-anchor="start" x="773.64" y="-1234.16" font-family="Helvetica,sans-Serif" font-weight="bold" font-size="32.00" fill="#29235c">id</text>
<text text-anchor="start" x="798.53" y="-1234.16" font-family="Helvetica,sans-Serif" font-size="32.00" fill="#29235c"> &#160;&#160;&#160;</text>
<text text-anchor="start" x="1055.43" y="-1234.16" font-family="Helvetica,sans-Serif" font-style="italic" font-size="32.00" fill="#29235c">INTEGER</text>
<polygon fill="#e7e2dd" stroke="transparent" points="762.64,-1152.96 762.64,-1212.96 1208.64,-1212.96 1208.64,-1152.96 762.64,-1152.96"/>
<polygon fill="none" stroke="#29235c" points="762.64,-1152.96 762.64,-1212.96 1208.64,-1212.96 1208.64,-1152.96 762.64,-1152.96"/>
<text text-anchor="start" x="773.64" y="-1173.16" font-family="Helvetica,sans-Serif" font-size="32.00" fill="#29235c">employee_id &#160;&#160;&#160;</text>
<text text-anchor="start" x="1055.43" y="-1174.16" font-family="Helvetica,sans-Serif" font-style="italic" font-size="32.00" fill="#29235c">INTEGER</text>
<polygon fill="#e7e2dd" stroke="transparent" points="762.64,-1092.96 762.64,-1152.96 1208.64,-1152.96 1208.64,-1092.96 762.64,-1092.96"/>
<polygon fill="none" stroke="#29235c" points="762.64,-1092.96 762.64,-1152.96 1208.64,-1152.96 1208.64,-1092.96 762.64,-1092.96"/>
<text text-anchor="start" x="773.64" y="-1113.16" font-family="Helvetica,sans-Serif" font-size="32.00" fill="#29235c">customer_id &#160;&#160;&#160;</text>
<text text-anchor="start" x="1055.43" y="-1114.16" font-family="Helvetica,sans-Serif" font-style="italic" font-size="32.00" fill="#29235c">INTEGER</text>
<polygon fill="#e7e2dd" stroke="transparent" points="762.64,-1032.96 762.64,-1092.96 1208.64,-1092.96 1208.64,-1032.96 762.64,-1032.96"/>
<polygon fill="none" stroke="#29235c" points="762.64,-1032.96 762.64,-1092.96 1208.64,-1092.96 1208.64,-1032.96 762.64,-1032.96"/>
<text text-anchor="start" x="773.54" y="-1053.16" font-family="Helvetica,sans-Serif" font-size="32.00" fill="#29235c">interaction_date &#160;&#160;&#160;</text>
<text text-anchor="start" x="1036.26" y="-1054.16" font-family="Helvetica,sans-Serif" font-style="italic" font-size="32.00" fill="#29235c">DATETIME</text>
<polygon fill="#e7e2dd" stroke="transparent" points="762.64,-972.96 762.64,-1032.96 1208.64,-1032.96 1208.64,-972.96 762.64,-972.96"/>
<polygon fill="none" stroke="#29235c" points="762.64,-972.96 762.64,-1032.96 1208.64,-1032.96 1208.64,-972.96 762.64,-972.96"/>
<text text-anchor="start" x="773.64" y="-993.16" font-family="Helvetica,sans-Serif" font-size="32.00" fill="#29235c">notes &#160;&#160;&#160;</text>
<text text-anchor="start" x="1115.87" y="-994.16" font-family="Helvetica,sans-Serif" font-style="italic" font-size="32.00" fill="#29235c">TEXT</text>
<polygon fill="none" stroke="#29235c" stroke-width="2" points="761.64,-971.96 761.64,-1333.96 1209.64,-1333.96 1209.64,-971.96 761.64,-971.96"/>
</g>
<!-- CustomerInteraction&#45;&gt;Customer -->
<!-- CustomerInteraction&#45;&gt;Customer -->
<g id="edge6" class="edge">
<title>CustomerInteraction:e&#45;&gt;Customer:w</title>
<path fill="none" stroke="#29235c" stroke-width="3" d="M1209.64,-1122.96C1352.38,-1122.96 1292.79,-1282.38 1334.25,-1418.96 1380.56,-1571.55 1313.48,-2114.91 1463.25,-2138.19"/>
<polygon fill="#29235c" stroke="#29235c" stroke-width="3" points="1463.2,-2141.69 1473.44,-2138.96 1463.73,-2134.71 1463.2,-2141.69"/>
<text text-anchor="middle" x="1479.66" y="-2148.56" font-family="Helvetica,sans-Serif" font-size="32.00" fill="#29235c">*</text>
<text text-anchor="middle" x="1218.54" y="-1094.16" font-family="Helvetica,sans-Serif" font-size="32.00" fill="#29235c">1</text>
</g>
<!-- Employee -->
<g id="Employee" class="node">
<title>Employee</title>
<ellipse fill="none" stroke="black" stroke-width="0" cx="1717.44" cy="-1212.96" rx="263.09" ry="172.57"/>
<polygon fill="#1d71b8" stroke="transparent" points="1533.44,-1272.96 1533.44,-1332.96 1901.44,-1332.96 1901.44,-1272.96 1533.44,-1272.96"/>
<polygon fill="none" stroke="#29235c" points="1533.44,-1272.96 1533.44,-1332.96 1901.44,-1332.96 1901.44,-1272.96 1533.44,-1272.96"/>
<text text-anchor="start" x="1584.06" y="-1294.16" font-family="Helvetica,sans-Serif" font-weight="bold" font-size="32.00" fill="#ffffff"> &#160;&#160;&#160;&#160;&#160;&#160;Employee &#160;&#160;&#160;&#160;&#160;&#160;</text>
<polygon fill="#e7e2dd" stroke="transparent" points="1533.44,-1212.96 1533.44,-1272.96 1901.44,-1272.96 1901.44,-1212.96 1533.44,-1212.96"/>
<polygon fill="none" stroke="#29235c" points="1533.44,-1212.96 1533.44,-1272.96 1901.44,-1272.96 1901.44,-1212.96 1533.44,-1212.96"/>
<text text-anchor="start" x="1544.44" y="-1234.16" font-family="Helvetica,sans-Serif" font-weight="bold" font-size="32.00" fill="#29235c">id</text>
<text text-anchor="start" x="1569.33" y="-1234.16" font-family="Helvetica,sans-Serif" font-size="32.00" fill="#29235c"> &#160;&#160;&#160;</text>
<text text-anchor="start" x="1748.22" y="-1234.16" font-family="Helvetica,sans-Serif" font-style="italic" font-size="32.00" fill="#29235c">INTEGER</text>
<polygon fill="#e7e2dd" stroke="transparent" points="1533.44,-1152.96 1533.44,-1212.96 1901.44,-1212.96 1901.44,-1152.96 1533.44,-1152.96"/>
<polygon fill="none" stroke="#29235c" points="1533.44,-1152.96 1533.44,-1212.96 1901.44,-1212.96 1901.44,-1152.96 1533.44,-1152.96"/>
<text text-anchor="start" x="1544.14" y="-1173.16" font-family="Helvetica,sans-Serif" font-size="32.00" fill="#29235c">name &#160;&#160;&#160;</text>
<text text-anchor="start" x="1659.39" y="-1174.16" font-family="Helvetica,sans-Serif" font-style="italic" font-size="32.00" fill="#29235c">VARCHAR(100)</text>
<polygon fill="#e7e2dd" stroke="transparent" points="1533.44,-1092.96 1533.44,-1152.96 1901.44,-1152.96 1901.44,-1092.96 1533.44,-1092.96"/>
<polygon fill="none" stroke="#29235c" points="1533.44,-1092.96 1533.44,-1152.96 1901.44,-1152.96 1901.44,-1092.96 1533.44,-1092.96"/>
<text text-anchor="start" x="1544.44" y="-1113.16" font-family="Helvetica,sans-Serif" font-size="32.00" fill="#29235c">role &#160;&#160;&#160;</text>
<text text-anchor="start" x="1677.13" y="-1114.16" font-family="Helvetica,sans-Serif" font-style="italic" font-size="32.00" fill="#29235c">VARCHAR(50)</text>
<polygon fill="none" stroke="#29235c" stroke-width="2" points="1532.44,-1091.96 1532.44,-1333.96 1902.44,-1333.96 1902.44,-1091.96 1532.44,-1091.96"/>
</g>
<!-- CustomerInteraction&#45;&gt;Employee -->
<!-- CustomerInteraction&#45;&gt;Employee -->
<g id="edge8" class="edge">
<title>CustomerInteraction:e&#45;&gt;Employee:w</title>
<path fill="none" stroke="#29235c" stroke-width="3" d="M1209.64,-1182.96C1352.15,-1182.96 1385,-1240.18 1522.36,-1242.86"/>
<polygon fill="#29235c" stroke="#29235c" stroke-width="3" points="1522.4,-1246.36 1532.44,-1242.96 1522.47,-1239.36 1522.4,-1246.36"/>
<text text-anchor="middle" x="1526.22" y="-1214.16" font-family="Helvetica,sans-Serif" font-size="32.00" fill="#29235c">*</text>
<text text-anchor="middle" x="1218.54" y="-1154.16" font-family="Helvetica,sans-Serif" font-size="32.00" fill="#29235c">1</text>
</g>
<!-- Order -->
<g id="Order" class="node">
<title>Order</title>
<ellipse fill="none" stroke="black" stroke-width="0" cx="985.64" cy="-2538.96" rx="266.66" ry="214.92"/>
<polygon fill="#1d71b8" stroke="transparent" points="799.64,-2628.96 799.64,-2688.96 1172.64,-2688.96 1172.64,-2628.96 799.64,-2628.96"/>
<polygon fill="none" stroke="#29235c" points="799.64,-2628.96 799.64,-2688.96 1172.64,-2688.96 1172.64,-2628.96 799.64,-2628.96"/>
<text text-anchor="start" x="883.01" y="-2650.16" font-family="Helvetica,sans-Serif" font-weight="bold" font-size="32.00" fill="#ffffff"> &#160;&#160;&#160;&#160;&#160;&#160;Order &#160;&#160;&#160;&#160;&#160;&#160;</text>
<polygon fill="#e7e2dd" stroke="transparent" points="799.64,-2568.96 799.64,-2628.96 1172.64,-2628.96 1172.64,-2568.96 799.64,-2568.96"/>
<polygon fill="none" stroke="#29235c" points="799.64,-2568.96 799.64,-2628.96 1172.64,-2628.96 1172.64,-2568.96 799.64,-2568.96"/>
<text text-anchor="start" x="810.64" y="-2590.16" font-family="Helvetica,sans-Serif" font-weight="bold" font-size="32.00" fill="#29235c">id</text>
<text text-anchor="start" x="835.53" y="-2590.16" font-family="Helvetica,sans-Serif" font-size="32.00" fill="#29235c"> &#160;&#160;&#160;</text>
<text text-anchor="start" x="1019.43" y="-2590.16" font-family="Helvetica,sans-Serif" font-style="italic" font-size="32.00" fill="#29235c">INTEGER</text>
<polygon fill="#e7e2dd" stroke="transparent" points="799.64,-2508.96 799.64,-2568.96 1172.64,-2568.96 1172.64,-2508.96 799.64,-2508.96"/>
<polygon fill="none" stroke="#29235c" points="799.64,-2508.96 799.64,-2568.96 1172.64,-2568.96 1172.64,-2508.96 799.64,-2508.96"/>
<text text-anchor="start" x="810.24" y="-2529.16" font-family="Helvetica,sans-Serif" font-size="32.00" fill="#29235c">customer_id &#160;&#160;&#160;</text>
<text text-anchor="start" x="1019.54" y="-2530.16" font-family="Helvetica,sans-Serif" font-style="italic" font-size="32.00" fill="#29235c">INTEGER</text>
<polygon fill="#e7e2dd" stroke="transparent" points="799.64,-2448.96 799.64,-2508.96 1172.64,-2508.96 1172.64,-2448.96 799.64,-2448.96"/>
<polygon fill="none" stroke="#29235c" points="799.64,-2448.96 799.64,-2508.96 1172.64,-2508.96 1172.64,-2448.96 799.64,-2448.96"/>
<text text-anchor="start" x="810.5" y="-2469.16" font-family="Helvetica,sans-Serif" font-size="32.00" fill="#29235c">order_date &#160;&#160;&#160;</text>
<text text-anchor="start" x="1000.26" y="-2470.16" font-family="Helvetica,sans-Serif" font-style="italic" font-size="32.00" fill="#29235c">DATETIME</text>
<polygon fill="#e7e2dd" stroke="transparent" points="799.64,-2388.96 799.64,-2448.96 1172.64,-2448.96 1172.64,-2388.96 799.64,-2388.96"/>
<polygon fill="none" stroke="#29235c" points="799.64,-2388.96 799.64,-2448.96 1172.64,-2448.96 1172.64,-2388.96 799.64,-2388.96"/>
<text text-anchor="start" x="810.64" y="-2409.16" font-family="Helvetica,sans-Serif" font-size="32.00" fill="#29235c">total_amount &#160;&#160;&#160;</text>
<text text-anchor="start" x="1058.52" y="-2410.16" font-family="Helvetica,sans-Serif" font-style="italic" font-size="32.00" fill="#29235c">FLOAT</text>
<polygon fill="none" stroke="#29235c" stroke-width="2" points="798.14,-2387.96 798.14,-2689.96 1173.14,-2689.96 1173.14,-2387.96 798.14,-2387.96"/>
</g>
<!-- Order&#45;&gt;Customer -->
<!-- Order&#45;&gt;Customer -->
<g id="edge10" class="edge">
<title>Order:e&#45;&gt;Customer:w</title>
<path fill="none" stroke="#29235c" stroke-width="3" d="M1173.64,-2538.96C1281.37,-2538.96 1357.62,-2162.81 1463.44,-2140.04"/>
<polygon fill="#29235c" stroke="#29235c" stroke-width="3" points="1463.87,-2143.51 1473.44,-2138.96 1463.12,-2136.55 1463.87,-2143.51"/>
<text text-anchor="middle" x="1479.66" y="-2110.16" font-family="Helvetica,sans-Serif" font-size="32.00" fill="#29235c">*</text>
<text text-anchor="middle" x="1182.54" y="-2548.56" font-family="Helvetica,sans-Serif" font-size="32.00" fill="#29235c">1</text>
</g>
<!-- OrderDetail -->
<g id="OrderDetail" class="node">
<title>OrderDetail</title>
<ellipse fill="none" stroke="black" stroke-width="0" cx="300.52" cy="-1512.96" rx="259.52" ry="257.27"/>
<polygon fill="#1d71b8" stroke="transparent" points="119.52,-1632.96 119.52,-1692.96 482.52,-1692.96 482.52,-1632.96 119.52,-1632.96"/>
<polygon fill="none" stroke="#29235c" points="119.52,-1632.96 119.52,-1692.96 482.52,-1692.96 482.52,-1632.96 119.52,-1632.96"/>
<text text-anchor="start" x="157" y="-1654.16" font-family="Helvetica,sans-Serif" font-weight="bold" font-size="32.00" fill="#ffffff"> &#160;&#160;&#160;&#160;&#160;&#160;OrderDetail &#160;&#160;&#160;&#160;&#160;&#160;</text>
<polygon fill="#e7e2dd" stroke="transparent" points="119.52,-1572.96 119.52,-1632.96 482.52,-1632.96 482.52,-1572.96 119.52,-1572.96"/>
<polygon fill="none" stroke="#29235c" points="119.52,-1572.96 119.52,-1632.96 482.52,-1632.96 482.52,-1572.96 119.52,-1572.96"/>
<text text-anchor="start" x="130.52" y="-1594.16" font-family="Helvetica,sans-Serif" font-weight="bold" font-size="32.00" fill="#29235c">id</text>
<text text-anchor="start" x="155.41" y="-1594.16" font-family="Helvetica,sans-Serif" font-size="32.00" fill="#29235c"> &#160;&#160;&#160;</text>
<text text-anchor="start" x="329.3" y="-1594.16" font-family="Helvetica,sans-Serif" font-style="italic" font-size="32.00" fill="#29235c">INTEGER</text>
<polygon fill="#e7e2dd" stroke="transparent" points="119.52,-1512.96 119.52,-1572.96 482.52,-1572.96 482.52,-1512.96 119.52,-1512.96"/>
<polygon fill="none" stroke="#29235c" points="119.52,-1512.96 119.52,-1572.96 482.52,-1572.96 482.52,-1512.96 119.52,-1512.96"/>
<text text-anchor="start" x="130.52" y="-1533.16" font-family="Helvetica,sans-Serif" font-size="32.00" fill="#29235c">order_id &#160;&#160;&#160;</text>
<text text-anchor="start" x="329.3" y="-1534.16" font-family="Helvetica,sans-Serif" font-style="italic" font-size="32.00" fill="#29235c">INTEGER</text>
<polygon fill="#e7e2dd" stroke="transparent" points="119.52,-1452.96 119.52,-1512.96 482.52,-1512.96 482.52,-1452.96 119.52,-1452.96"/>
<polygon fill="none" stroke="#29235c" points="119.52,-1452.96 119.52,-1512.96 482.52,-1512.96 482.52,-1452.96 119.52,-1452.96"/>
<text text-anchor="start" x="130.52" y="-1473.16" font-family="Helvetica,sans-Serif" font-size="32.00" fill="#29235c">product_id &#160;&#160;&#160;</text>
<text text-anchor="start" x="329.3" y="-1474.16" font-family="Helvetica,sans-Serif" font-style="italic" font-size="32.00" fill="#29235c">INTEGER</text>
<polygon fill="#e7e2dd" stroke="transparent" points="119.52,-1392.96 119.52,-1452.96 482.52,-1452.96 482.52,-1392.96 119.52,-1392.96"/>
<polygon fill="none" stroke="#29235c" points="119.52,-1392.96 119.52,-1452.96 482.52,-1452.96 482.52,-1392.96 119.52,-1392.96"/>
<text text-anchor="start" x="130.52" y="-1413.16" font-family="Helvetica,sans-Serif" font-size="32.00" fill="#29235c">quantity &#160;&#160;&#160;</text>
<text text-anchor="start" x="329.3" y="-1414.16" font-family="Helvetica,sans-Serif" font-style="italic" font-size="32.00" fill="#29235c">INTEGER</text>
<polygon fill="#e7e2dd" stroke="transparent" points="119.52,-1332.96 119.52,-1392.96 482.52,-1392.96 482.52,-1332.96 119.52,-1332.96"/>
<polygon fill="none" stroke="#29235c" points="119.52,-1332.96 119.52,-1392.96 482.52,-1392.96 482.52,-1332.96 119.52,-1332.96"/>
<text text-anchor="start" x="130.38" y="-1353.16" font-family="Helvetica,sans-Serif" font-size="32.00" fill="#29235c">price_per_unit &#160;&#160;&#160;</text>
<text text-anchor="start" x="368.46" y="-1354.16" font-family="Helvetica,sans-Serif" font-style="italic" font-size="32.00" fill="#29235c">FLOAT</text>
<polygon fill="none" stroke="#29235c" stroke-width="2" points="118.02,-1331.96 118.02,-1693.96 483.02,-1693.96 483.02,-1331.96 118.02,-1331.96"/>
</g>
<!-- OrderDetail&#45;&gt;Order -->
<!-- OrderDetail&#45;&gt;Order -->
<g id="edge12" class="edge">
<title>OrderDetail:e&#45;&gt;Order:w</title>
<path fill="none" stroke="#29235c" stroke-width="3" d="M483.52,-1542.96C658.44,-1542.96 575.94,-2151.06 637.04,-2314.96 686.53,-2447.72 655.04,-2591.74 788.32,-2598.7"/>
<polygon fill="#29235c" stroke="#29235c" stroke-width="3" points="788.56,-2602.21 798.64,-2598.96 788.74,-2595.21 788.56,-2602.21"/>
<text text-anchor="middle" x="804.87" y="-2608.56" font-family="Helvetica,sans-Serif" font-size="32.00" fill="#29235c">*</text>
<text text-anchor="middle" x="474.63" y="-1514.16" font-family="Helvetica,sans-Serif" font-size="32.00" fill="#29235c">1</text>
</g>
<!-- Product -->
<g id="Product" class="node">
<title>Product</title>
<ellipse fill="none" stroke="black" stroke-width="0" cx="985.64" cy="-662.96" rx="288.5" ry="214.92"/>
<polygon fill="#1d71b8" stroke="transparent" points="783.64,-752.96 783.64,-812.96 1187.64,-812.96 1187.64,-752.96 783.64,-752.96"/>
<polygon fill="none" stroke="#29235c" points="783.64,-752.96 783.64,-812.96 1187.64,-812.96 1187.64,-752.96 783.64,-752.96"/>
<text text-anchor="start" x="868.27" y="-774.16" font-family="Helvetica,sans-Serif" font-weight="bold" font-size="32.00" fill="#ffffff"> &#160;&#160;&#160;&#160;&#160;&#160;Product &#160;&#160;&#160;&#160;&#160;&#160;</text>
<polygon fill="#e7e2dd" stroke="transparent" points="783.64,-692.96 783.64,-752.96 1187.64,-752.96 1187.64,-692.96 783.64,-692.96"/>
<polygon fill="none" stroke="#29235c" points="783.64,-692.96 783.64,-752.96 1187.64,-752.96 1187.64,-692.96 783.64,-692.96"/>
<text text-anchor="start" x="794.64" y="-714.16" font-family="Helvetica,sans-Serif" font-weight="bold" font-size="32.00" fill="#29235c">id</text>
<text text-anchor="start" x="819.53" y="-714.16" font-family="Helvetica,sans-Serif" font-size="32.00" fill="#29235c"> &#160;&#160;&#160;</text>
<text text-anchor="start" x="1034.43" y="-714.16" font-family="Helvetica,sans-Serif" font-style="italic" font-size="32.00" fill="#29235c">INTEGER</text>
<polygon fill="#e7e2dd" stroke="transparent" points="783.64,-632.96 783.64,-692.96 1187.64,-692.96 1187.64,-632.96 783.64,-632.96"/>
<polygon fill="none" stroke="#29235c" points="783.64,-632.96 783.64,-692.96 1187.64,-692.96 1187.64,-632.96 783.64,-632.96"/>
<text text-anchor="start" x="794.64" y="-653.16" font-family="Helvetica,sans-Serif" font-size="32.00" fill="#29235c">name &#160;&#160;&#160;</text>
<text text-anchor="start" x="945.55" y="-654.16" font-family="Helvetica,sans-Serif" font-style="italic" font-size="32.00" fill="#29235c">VARCHAR(100)</text>
<polygon fill="#e7e2dd" stroke="transparent" points="783.64,-572.96 783.64,-632.96 1187.64,-632.96 1187.64,-572.96 783.64,-572.96"/>
<polygon fill="none" stroke="#29235c" points="783.64,-572.96 783.64,-632.96 1187.64,-632.96 1187.64,-572.96 783.64,-572.96"/>
<text text-anchor="start" x="794.64" y="-593.16" font-family="Helvetica,sans-Serif" font-size="32.00" fill="#29235c">price &#160;&#160;&#160;</text>
<text text-anchor="start" x="1073.52" y="-594.16" font-family="Helvetica,sans-Serif" font-style="italic" font-size="32.00" fill="#29235c">FLOAT</text>
<polygon fill="#e7e2dd" stroke="transparent" points="783.64,-512.96 783.64,-572.96 1187.64,-572.96 1187.64,-512.96 783.64,-512.96"/>
<polygon fill="none" stroke="#29235c" points="783.64,-512.96 783.64,-572.96 1187.64,-572.96 1187.64,-512.96 783.64,-512.96"/>
<text text-anchor="start" x="794.6" y="-533.16" font-family="Helvetica,sans-Serif" font-size="32.00" fill="#29235c">stock_quantity &#160;&#160;&#160;</text>
<text text-anchor="start" x="1034.54" y="-534.16" font-family="Helvetica,sans-Serif" font-style="italic" font-size="32.00" fill="#29235c">INTEGER</text>
<polygon fill="none" stroke="#29235c" stroke-width="2" points="782.64,-511.96 782.64,-813.96 1188.64,-813.96 1188.64,-511.96 782.64,-511.96"/>
</g>
<!-- OrderDetail&#45;&gt;Product -->
<!-- OrderDetail&#45;&gt;Product -->
<g id="edge14" class="edge">
<title>OrderDetail:e&#45;&gt;Product:w</title>
<path fill="none" stroke="#29235c" stroke-width="3" d="M483.52,-1482.96C757.06,-1482.96 508.53,-1128.43 637.04,-886.96 681.18,-804.03 684.95,-728.6 772.44,-723.26"/>
<polygon fill="#29235c" stroke="#29235c" stroke-width="3" points="772.75,-726.76 782.64,-722.96 772.55,-719.76 772.75,-726.76"/>
<text text-anchor="middle" x="788.87" y="-694.16" font-family="Helvetica,sans-Serif" font-size="32.00" fill="#29235c">*</text>
<text text-anchor="middle" x="474.63" y="-1454.16" font-family="Helvetica,sans-Serif" font-size="32.00" fill="#29235c">1</text>
</g>
<!-- Payment -->
<g id="Payment" class="node">
<title>Payment</title>
<ellipse fill="none" stroke="black" stroke-width="0" cx="300.52" cy="-2538.96" rx="300.54" ry="214.92"/>
<polygon fill="#1d71b8" stroke="transparent" points="90.52,-2628.96 90.52,-2688.96 511.52,-2688.96 511.52,-2628.96 90.52,-2628.96"/>
<polygon fill="none" stroke="#29235c" points="90.52,-2628.96 90.52,-2688.96 511.52,-2688.96 511.52,-2628.96 90.52,-2628.96"/>
<text text-anchor="start" x="175.64" y="-2650.16" font-family="Helvetica,sans-Serif" font-weight="bold" font-size="32.00" fill="#ffffff"> &#160;&#160;&#160;&#160;&#160;&#160;Payment &#160;&#160;&#160;&#160;&#160;&#160;</text>
<polygon fill="#e7e2dd" stroke="transparent" points="90.52,-2568.96 90.52,-2628.96 511.52,-2628.96 511.52,-2568.96 90.52,-2568.96"/>
<polygon fill="none" stroke="#29235c" points="90.52,-2568.96 90.52,-2628.96 511.52,-2628.96 511.52,-2568.96 90.52,-2568.96"/>
<text text-anchor="start" x="101.52" y="-2590.16" font-family="Helvetica,sans-Serif" font-weight="bold" font-size="32.00" fill="#29235c">id</text>
<text text-anchor="start" x="126.41" y="-2590.16" font-family="Helvetica,sans-Serif" font-size="32.00" fill="#29235c"> &#160;&#160;&#160;</text>
<text text-anchor="start" x="358.3" y="-2590.16" font-family="Helvetica,sans-Serif" font-style="italic" font-size="32.00" fill="#29235c">INTEGER</text>
<polygon fill="#e7e2dd" stroke="transparent" points="90.52,-2508.96 90.52,-2568.96 511.52,-2568.96 511.52,-2508.96 90.52,-2508.96"/>
<polygon fill="none" stroke="#29235c" points="90.52,-2508.96 90.52,-2568.96 511.52,-2568.96 511.52,-2508.96 90.52,-2508.96"/>
<text text-anchor="start" x="101.52" y="-2529.16" font-family="Helvetica,sans-Serif" font-size="32.00" fill="#29235c">order_id &#160;&#160;&#160;</text>
<text text-anchor="start" x="358.3" y="-2530.16" font-family="Helvetica,sans-Serif" font-style="italic" font-size="32.00" fill="#29235c">INTEGER</text>
<polygon fill="#e7e2dd" stroke="transparent" points="90.52,-2448.96 90.52,-2508.96 511.52,-2508.96 511.52,-2448.96 90.52,-2448.96"/>
<polygon fill="none" stroke="#29235c" points="90.52,-2448.96 90.52,-2508.96 511.52,-2508.96 511.52,-2448.96 90.52,-2448.96"/>
<text text-anchor="start" x="101.52" y="-2469.16" font-family="Helvetica,sans-Serif" font-size="32.00" fill="#29235c">amount &#160;&#160;&#160;</text>
<text text-anchor="start" x="397.4" y="-2470.16" font-family="Helvetica,sans-Serif" font-style="italic" font-size="32.00" fill="#29235c">FLOAT</text>
<polygon fill="#e7e2dd" stroke="transparent" points="90.52,-2388.96 90.52,-2448.96 511.52,-2448.96 511.52,-2388.96 90.52,-2388.96"/>
<polygon fill="none" stroke="#29235c" points="90.52,-2388.96 90.52,-2448.96 511.52,-2448.96 511.52,-2388.96 90.52,-2388.96"/>
<text text-anchor="start" x="101.36" y="-2409.16" font-family="Helvetica,sans-Serif" font-size="32.00" fill="#29235c">payment_date &#160;&#160;&#160;</text>
<text text-anchor="start" x="339.14" y="-2410.16" font-family="Helvetica,sans-Serif" font-style="italic" font-size="32.00" fill="#29235c">DATETIME</text>
<polygon fill="none" stroke="#29235c" stroke-width="2" points="89.02,-2387.96 89.02,-2689.96 512.02,-2689.96 512.02,-2387.96 89.02,-2387.96"/>
</g>
<!-- Payment&#45;&gt;Order -->
<!-- Payment&#45;&gt;Order -->
<g id="edge16" class="edge">
<title>Payment:e&#45;&gt;Order:w</title>
<path fill="none" stroke="#29235c" stroke-width="3" d="M512.52,-2538.96C639.03,-2538.96 667.26,-2595.84 788.58,-2598.84"/>
<polygon fill="#29235c" stroke="#29235c" stroke-width="3" points="788.6,-2602.34 798.64,-2598.96 788.69,-2595.34 788.6,-2602.34"/>
<text text-anchor="middle" x="804.87" y="-2570.16" font-family="Helvetica,sans-Serif" font-size="32.00" fill="#29235c">*</text>
<text text-anchor="middle" x="503.63" y="-2548.56" font-family="Helvetica,sans-Serif" font-size="32.00" fill="#29235c">1</text>
</g>
<!-- ProductVendor -->
<g id="ProductVendor" class="node">
<title>ProductVendor</title>
<ellipse fill="none" stroke="black" stroke-width="0" cx="300.52" cy="-528.96" rx="256.86" ry="172.57"/>
<polygon fill="#1d71b8" stroke="transparent" points="121.52,-588.96 121.52,-648.96 480.52,-648.96 480.52,-588.96 121.52,-588.96"/>
<polygon fill="none" stroke="#29235c" points="121.52,-588.96 121.52,-648.96 480.52,-648.96 480.52,-588.96 121.52,-588.96"/>
<text text-anchor="start" x="132.07" y="-610.16" font-family="Helvetica,sans-Serif" font-weight="bold" font-size="32.00" fill="#ffffff"> &#160;&#160;&#160;&#160;&#160;&#160;ProductVendor &#160;&#160;&#160;&#160;&#160;&#160;</text>
<polygon fill="#e7e2dd" stroke="transparent" points="121.52,-528.96 121.52,-588.96 480.52,-588.96 480.52,-528.96 121.52,-528.96"/>
<polygon fill="none" stroke="#29235c" points="121.52,-528.96 121.52,-588.96 480.52,-588.96 480.52,-528.96 121.52,-528.96"/>
<text text-anchor="start" x="132.52" y="-550.16" font-family="Helvetica,sans-Serif" font-weight="bold" font-size="32.00" fill="#29235c">id</text>
<text text-anchor="start" x="157.41" y="-550.16" font-family="Helvetica,sans-Serif" font-size="32.00" fill="#29235c"> &#160;&#160;&#160;</text>
<text text-anchor="start" x="327.3" y="-550.16" font-family="Helvetica,sans-Serif" font-style="italic" font-size="32.00" fill="#29235c">INTEGER</text>
<polygon fill="#e7e2dd" stroke="transparent" points="121.52,-468.96 121.52,-528.96 480.52,-528.96 480.52,-468.96 121.52,-468.96"/>
<polygon fill="none" stroke="#29235c" points="121.52,-468.96 121.52,-528.96 480.52,-528.96 480.52,-468.96 121.52,-468.96"/>
<text text-anchor="start" x="132.52" y="-489.16" font-family="Helvetica,sans-Serif" font-size="32.00" fill="#29235c">product_id &#160;&#160;&#160;</text>
<text text-anchor="start" x="327.3" y="-490.16" font-family="Helvetica,sans-Serif" font-style="italic" font-size="32.00" fill="#29235c">INTEGER</text>
<polygon fill="#e7e2dd" stroke="transparent" points="121.52,-408.96 121.52,-468.96 480.52,-468.96 480.52,-408.96 121.52,-408.96"/>
<polygon fill="none" stroke="#29235c" points="121.52,-408.96 121.52,-468.96 480.52,-468.96 480.52,-408.96 121.52,-408.96"/>
<text text-anchor="start" x="132.52" y="-429.16" font-family="Helvetica,sans-Serif" font-size="32.00" fill="#29235c">vendor_id &#160;&#160;&#160;</text>
<text text-anchor="start" x="327.3" y="-430.16" font-family="Helvetica,sans-Serif" font-style="italic" font-size="32.00" fill="#29235c">INTEGER</text>
<polygon fill="none" stroke="#29235c" stroke-width="2" points="120.02,-407.96 120.02,-649.96 481.02,-649.96 481.02,-407.96 120.02,-407.96"/>
</g>
<!-- ProductVendor&#45;&gt;Product -->
<!-- ProductVendor&#45;&gt;Product -->
<g id="edge18" class="edge">
<title>ProductVendor:e&#45;&gt;Product:w</title>
<path fill="none" stroke="#29235c" stroke-width="3" d="M481.52,-498.96C644.9,-498.96 617.09,-713.87 772.63,-722.68"/>
<polygon fill="#29235c" stroke="#29235c" stroke-width="3" points="772.55,-726.18 782.64,-722.96 772.75,-719.18 772.55,-726.18"/>
<text text-anchor="middle" x="788.87" y="-732.56" font-family="Helvetica,sans-Serif" font-size="32.00" fill="#29235c">*</text>
<text text-anchor="middle" x="472.63" y="-470.16" font-family="Helvetica,sans-Serif" font-size="32.00" fill="#29235c">1</text>
</g>
<!-- Vendor -->
<g id="Vendor" class="node">
<title>Vendor</title>
<ellipse fill="none" stroke="black" stroke-width="0" cx="985.64" cy="-214.96" rx="348.71" ry="214.92"/>
<polygon fill="#1d71b8" stroke="transparent" points="741.64,-304.96 741.64,-364.96 1230.64,-364.96 1230.64,-304.96 741.64,-304.96"/>
<polygon fill="none" stroke="#29235c" points="741.64,-304.96 741.64,-364.96 1230.64,-364.96 1230.64,-304.96 741.64,-304.96"/>
<text text-anchor="start" x="872.32" y="-326.16" font-family="Helvetica,sans-Serif" font-weight="bold" font-size="32.00" fill="#ffffff"> &#160;&#160;&#160;&#160;&#160;&#160;Vendor &#160;&#160;&#160;&#160;&#160;&#160;</text>
<polygon fill="#e7e2dd" stroke="transparent" points="741.64,-244.96 741.64,-304.96 1230.64,-304.96 1230.64,-244.96 741.64,-244.96"/>
<polygon fill="none" stroke="#29235c" points="741.64,-244.96 741.64,-304.96 1230.64,-304.96 1230.64,-244.96 741.64,-244.96"/>
<text text-anchor="start" x="752.64" y="-266.16" font-family="Helvetica,sans-Serif" font-weight="bold" font-size="32.00" fill="#29235c">id</text>
<text text-anchor="start" x="777.53" y="-266.16" font-family="Helvetica,sans-Serif" font-size="32.00" fill="#29235c"> &#160;&#160;&#160;</text>
<text text-anchor="start" x="1077.43" y="-266.16" font-family="Helvetica,sans-Serif" font-style="italic" font-size="32.00" fill="#29235c">INTEGER</text>
<polygon fill="#e7e2dd" stroke="transparent" points="741.64,-184.96 741.64,-244.96 1230.64,-244.96 1230.64,-184.96 741.64,-184.96"/>
<polygon fill="none" stroke="#29235c" points="741.64,-184.96 741.64,-244.96 1230.64,-244.96 1230.64,-184.96 741.64,-184.96"/>
<text text-anchor="start" x="752.64" y="-205.16" font-family="Helvetica,sans-Serif" font-size="32.00" fill="#29235c">name &#160;&#160;&#160;</text>
<text text-anchor="start" x="988.55" y="-206.16" font-family="Helvetica,sans-Serif" font-style="italic" font-size="32.00" fill="#29235c">VARCHAR(100)</text>
<polygon fill="#e7e2dd" stroke="transparent" points="741.64,-124.96 741.64,-184.96 1230.64,-184.96 1230.64,-124.96 741.64,-124.96"/>
<polygon fill="none" stroke="#29235c" points="741.64,-124.96 741.64,-184.96 1230.64,-184.96 1230.64,-124.96 741.64,-124.96"/>
<text text-anchor="start" x="752.38" y="-145.16" font-family="Helvetica,sans-Serif" font-size="32.00" fill="#29235c">contact_name &#160;&#160;&#160;</text>
<text text-anchor="start" x="988.6" y="-146.16" font-family="Helvetica,sans-Serif" font-style="italic" font-size="32.00" fill="#29235c">VARCHAR(100)</text>
<polygon fill="#e7e2dd" stroke="transparent" points="741.64,-64.96 741.64,-124.96 1230.64,-124.96 1230.64,-64.96 741.64,-64.96"/>
<polygon fill="none" stroke="#29235c" points="741.64,-64.96 741.64,-124.96 1230.64,-124.96 1230.64,-64.96 741.64,-64.96"/>
<text text-anchor="start" x="752.64" y="-85.16" font-family="Helvetica,sans-Serif" font-size="32.00" fill="#29235c">contact_email &#160;&#160;&#160;</text>
<text text-anchor="start" x="988.55" y="-86.16" font-family="Helvetica,sans-Serif" font-style="italic" font-size="32.00" fill="#29235c">VARCHAR(100)</text>
<polygon fill="none" stroke="#29235c" stroke-width="2" points="740.14,-63.96 740.14,-365.96 1231.14,-365.96 1231.14,-63.96 740.14,-63.96"/>
</g>
<!-- ProductVendor&#45;&gt;Vendor -->
<!-- ProductVendor&#45;&gt;Vendor -->
<g id="edge20" class="edge">
<title>ProductVendor:e&#45;&gt;Vendor:w</title>
<path fill="none" stroke="#29235c" stroke-width="3" d="M481.52,-438.96C614.35,-438.96 604.94,-283.18 730.55,-275.27"/>
<polygon fill="#29235c" stroke="#29235c" stroke-width="3" points="730.76,-278.77 740.64,-274.96 730.54,-271.77 730.76,-278.77"/>
<text text-anchor="middle" x="746.87" y="-246.16" font-family="Helvetica,sans-Serif" font-size="32.00" fill="#29235c">*</text>
<text text-anchor="middle" x="472.63" y="-410.16" font-family="Helvetica,sans-Serif" font-size="32.00" fill="#29235c">1</text>
</g>
<!-- Subscription -->
<g id="Subscription" class="node">
<title>Subscription</title>
<ellipse fill="none" stroke="black" stroke-width="0" cx="985.64" cy="-2048.96" rx="318.4" ry="257.27"/>
<polygon fill="#1d71b8" stroke="transparent" points="762.64,-2168.96 762.64,-2228.96 1208.64,-2228.96 1208.64,-2168.96 762.64,-2168.96"/>
<polygon fill="none" stroke="#29235c" points="762.64,-2168.96 762.64,-2228.96 1208.64,-2228.96 1208.64,-2168.96 762.64,-2168.96"/>
<text text-anchor="start" x="835.38" y="-2190.16" font-family="Helvetica,sans-Serif" font-weight="bold" font-size="32.00" fill="#ffffff"> &#160;&#160;&#160;&#160;&#160;&#160;Subscription &#160;&#160;&#160;&#160;&#160;&#160;</text>
<polygon fill="#e7e2dd" stroke="transparent" points="762.64,-2108.96 762.64,-2168.96 1208.64,-2168.96 1208.64,-2108.96 762.64,-2108.96"/>
<polygon fill="none" stroke="#29235c" points="762.64,-2108.96 762.64,-2168.96 1208.64,-2168.96 1208.64,-2108.96 762.64,-2108.96"/>
<text text-anchor="start" x="773.64" y="-2130.16" font-family="Helvetica,sans-Serif" font-weight="bold" font-size="32.00" fill="#29235c">id</text>
<text text-anchor="start" x="798.53" y="-2130.16" font-family="Helvetica,sans-Serif" font-size="32.00" fill="#29235c"> &#160;&#160;&#160;</text>
<text text-anchor="start" x="1055.43" y="-2130.16" font-family="Helvetica,sans-Serif" font-style="italic" font-size="32.00" fill="#29235c">INTEGER</text>
<polygon fill="#e7e2dd" stroke="transparent" points="762.64,-2048.96 762.64,-2108.96 1208.64,-2108.96 1208.64,-2048.96 762.64,-2048.96"/>
<polygon fill="none" stroke="#29235c" points="762.64,-2048.96 762.64,-2108.96 1208.64,-2108.96 1208.64,-2048.96 762.64,-2048.96"/>
<text text-anchor="start" x="773.64" y="-2069.16" font-family="Helvetica,sans-Serif" font-size="32.00" fill="#29235c">customer_id &#160;&#160;&#160;</text>
<text text-anchor="start" x="1055.43" y="-2070.16" font-family="Helvetica,sans-Serif" font-style="italic" font-size="32.00" fill="#29235c">INTEGER</text>
<polygon fill="#e7e2dd" stroke="transparent" points="762.64,-1988.96 762.64,-2048.96 1208.64,-2048.96 1208.64,-1988.96 762.64,-1988.96"/>
<polygon fill="none" stroke="#29235c" points="762.64,-1988.96 762.64,-2048.96 1208.64,-2048.96 1208.64,-1988.96 762.64,-1988.96"/>
<text text-anchor="start" x="773.22" y="-2009.16" font-family="Helvetica,sans-Serif" font-size="32.00" fill="#29235c">plan_name &#160;&#160;&#160;</text>
<text text-anchor="start" x="966.6" y="-2010.16" font-family="Helvetica,sans-Serif" font-style="italic" font-size="32.00" fill="#29235c">VARCHAR(100)</text>
<polygon fill="#e7e2dd" stroke="transparent" points="762.64,-1928.96 762.64,-1988.96 1208.64,-1988.96 1208.64,-1928.96 762.64,-1928.96"/>
<polygon fill="none" stroke="#29235c" points="762.64,-1928.96 762.64,-1988.96 1208.64,-1988.96 1208.64,-1928.96 762.64,-1928.96"/>
<text text-anchor="start" x="773.64" y="-1949.16" font-family="Helvetica,sans-Serif" font-size="32.00" fill="#29235c">monthly_fee &#160;&#160;&#160;</text>
<text text-anchor="start" x="1094.52" y="-1950.16" font-family="Helvetica,sans-Serif" font-style="italic" font-size="32.00" fill="#29235c">FLOAT</text>
<polygon fill="#e7e2dd" stroke="transparent" points="762.64,-1868.96 762.64,-1928.96 1208.64,-1928.96 1208.64,-1868.96 762.64,-1868.96"/>
<polygon fill="none" stroke="#29235c" points="762.64,-1868.96 762.64,-1928.96 1208.64,-1928.96 1208.64,-1868.96 762.64,-1868.96"/>
<text text-anchor="start" x="773.64" y="-1889.16" font-family="Helvetica,sans-Serif" font-size="32.00" fill="#29235c">start_date &#160;&#160;&#160;</text>
<text text-anchor="start" x="1035.88" y="-1890.16" font-family="Helvetica,sans-Serif" font-style="italic" font-size="32.00" fill="#29235c">DATETIME</text>
<polygon fill="none" stroke="#29235c" stroke-width="2" points="761.64,-1867.96 761.64,-2229.96 1209.64,-2229.96 1209.64,-1867.96 761.64,-1867.96"/>
</g>
<!-- Subscription&#45;&gt;Customer -->
<!-- Subscription&#45;&gt;Customer -->
<g id="edge22" class="edge">
<title>Subscription:e&#45;&gt;Customer:w</title>
<path fill="none" stroke="#29235c" stroke-width="3" d="M1209.64,-2078.96C1326.36,-2078.96 1351.75,-2135.5 1463.11,-2138.81"/>
<polygon fill="#29235c" stroke="#29235c" stroke-width="3" points="1463.39,-2142.31 1473.44,-2138.96 1463.49,-2135.31 1463.39,-2142.31"/>
<text text-anchor="middle" x="1467.22" y="-2148.56" font-family="Helvetica,sans-Serif" font-size="32.00" fill="#29235c">*</text>
<text text-anchor="middle" x="1218.54" y="-2088.56" font-family="Helvetica,sans-Serif" font-size="32.00" fill="#29235c">1</text>
</g>
</g>
</svg>
